<?xml version="1.0" standalone="no"?>
<!DOCTYPE svg PUBLIC "-//W3C//DTD SVG 20010904//EN"
 "http://www.w3.org/TR/2001/REC-SVG-20010904/DTD/svg10.dtd">
<svg version="1.0" xmlns="http://www.w3.org/2000/svg"
 width="268.000000pt" height="188.000000pt" viewBox="0 0 268.000000 188.000000"
 preserveAspectRatio="xMidYMid meet">

<g transform="translate(0.000000,188.000000) scale(0.100000,-0.100000)"
fill="#000000" stroke="none">
<path d="M925 1731 c-43 -11 -76 -29 -113 -64 l-32 -31 62 -63 62 -63 236 0
235 1 63 58 c34 32 62 63 62 69 0 6 -15 22 -32 35 -91 68 -167 78 -260 34 -31
-15 -62 -27 -68 -27 -6 0 -32 11 -58 24 -54 27 -114 38 -157 27z"/>
<path d="M820 1383 c-94 -110 -147 -272 -136 -421 12 -166 60 -212 220 -212
76 0 84 2 107 26 54 59 185 105 336 120 70 6 71 7 77 38 8 44 70 171 111 226
l34 46 -32 63 c-17 35 -51 85 -75 112 l-44 49 -278 0 -278 0 -42 -47z m340
-108 c0 -8 9 -15 19 -15 23 0 81 -46 81 -65 0 -7 -14 -15 -31 -19 -24 -5 -35
-1 -50 17 l-18 22 -1 -47 c0 -44 2 -47 34 -58 49 -16 78 -51 78 -95 0 -44 -29
-79 -78 -95 -23 -8 -34 -18 -34 -31 0 -12 -7 -19 -20 -19 -13 0 -20 7 -20 19
0 13 -9 21 -29 26 -15 3 -39 18 -53 33 -27 29 -42 62 -29 62 5 0 22 3 38 6 24
5 31 2 41 -20 18 -40 32 -31 32 19 0 41 -3 46 -32 58 -60 26 -88 78 -68 126
11 28 56 61 84 61 9 0 16 7 16 15 0 8 9 15 20 15 11 0 20 -7 20 -15z"/>
<path d="M1096 1184 c-21 -20 -20 -27 4 -49 20 -18 20 -17 20 23 0 47 -2 49
-24 26z"/>
<path d="M1160 995 c0 -42 2 -45 19 -36 15 9 31 32 31 46 0 8 -32 35 -41 35
-5 0 -9 -20 -9 -45z"/>
<path d="M1753 1177 c-75 -79 -83 -138 -20 -145 33 -4 52 24 67 104 19 99 13
104 -47 41z"/>
<path d="M1587 1144 c-23 -80 -22 -125 4 -158 23 -30 50 -33 74 -10 21 21 13
55 -23 107 -14 21 -28 57 -32 80 l-5 42 -18 -61z"/>
<path d="M1522 1023 c-15 -49 -16 -128 -2 -153 27 -51 90 -44 90 8 0 16 -13
49 -30 75 -16 26 -33 61 -38 78 l-8 32 -12 -40z"/>
<path d="M1878 1034 c-11 -11 -42 -19 -89 -23 -58 -6 -75 -11 -90 -30 -23 -28
-23 -35 -3 -55 42 -42 129 2 189 97 20 31 17 35 -7 11z"/>
<path d="M1457 891 c-19 -61 -22 -108 -7 -145 12 -33 44 -50 69 -36 36 19 35
48 -2 109 -20 31 -37 72 -39 91 -4 35 -4 35 -21 -19z"/>
<path d="M1809 908 c-18 -13 -50 -23 -93 -27 -76 -8 -102 -26 -92 -64 13 -55
95 -38 160 33 30 33 62 81 54 79 -2 0 -15 -9 -29 -21z"/>
<path d="M1251 819 c-122 -21 -224 -91 -251 -174 -30 -91 18 -238 108 -330
110 -113 237 -167 387 -167 178 0 334 82 435 228 34 48 70 150 70 196 0 81
-47 160 -113 195 -28 14 -32 14 -44 -3 -15 -21 -17 -34 -3 -34 18 0 80 -62 80
-80 0 -9 -9 -29 -20 -42 -84 -108 -527 -137 -729 -47 -176 78 -89 179 192 224
28 4 37 11 37 25 0 17 -7 20 -47 19 -27 -1 -72 -5 -102 -10z"/>
<path d="M1738 774 c-15 -8 -49 -17 -75 -20 -78 -9 -92 -13 -103 -34 -13 -24
1 -56 29 -65 39 -12 110 35 163 108 22 31 22 31 -14 11z"/>
<path d="M1462 615 c-13 -35 -21 -69 -17 -75 13 -21 31 -8 67 50 l37 59 -31
16 c-17 8 -32 15 -32 15 -1 0 -12 -29 -24 -65z"/>
</g>
</svg>
