<?xml version="1.0" standalone="no"?>
<!DOCTYPE svg PUBLIC "-//W3C//DTD SVG 20010904//EN"
 "http://www.w3.org/TR/2001/REC-SVG-20010904/DTD/svg10.dtd">
<svg version="1.0" xmlns="http://www.w3.org/2000/svg"
 width="225.000000pt" height="225.000000pt" viewBox="0 0 225.000000 225.000000"
 preserveAspectRatio="xMidYMid meet">

<g transform="translate(0.000000,225.000000) scale(0.100000,-0.100000)"
fill="#000000" stroke="none">
<path d="M921 2234 c-129 -35 -242 -129 -304 -256 -47 -94 -57 -150 -57 -312
0 -115 -3 -134 -20 -156 -26 -34 -25 -89 4 -190 15 -53 31 -86 45 -96 14 -10
21 -26 21 -49 0 -55 36 -135 91 -203 l50 -63 -17 -52 c-25 -76 -58 -138 -92
-170 -22 -21 -87 -47 -265 -107 -150 -49 -249 -88 -271 -105 -22 -16 -49 -54
-68 -93 -32 -64 -33 -72 -36 -208 -3 -121 -1 -143 13 -157 15 -15 69 -17 595
-17 513 0 580 2 594 16 19 19 20 35 4 57 -12 16 -60 17 -563 19 l-550 3 0 100
c0 77 4 108 18 137 36 71 54 82 304 164 211 71 241 83 282 120 71 64 140 215
141 308 0 21 -13 43 -46 78 -49 53 -94 138 -94 180 0 35 -17 78 -40 103 -11
12 -27 51 -37 87 l-17 67 27 25 27 25 0 174 c0 197 9 238 69 323 95 134 222
190 378 166 119 -19 203 -77 203 -139 0 -11 17 -38 39 -59 51 -53 61 -103 61
-313 0 -162 1 -169 22 -183 21 -14 21 -17 8 -77 -7 -35 -23 -75 -36 -91 -30
-36 -44 -72 -44 -119 0 -43 -41 -114 -103 -178 l-41 -43 11 -65 c22 -126 98
-253 180 -301 38 -23 48 -25 69 -15 39 18 29 59 -23 93 -46 31 -91 97 -116
172 -24 69 -22 83 18 127 47 52 85 130 95 196 5 30 16 60 25 67 22 16 65 147
68 205 1 37 -3 57 -19 78 -20 27 -22 45 -27 204 -5 195 -13 234 -63 288 -19
21 -34 45 -34 53 0 8 -13 35 -29 61 -69 108 -283 166 -450 121z"/>
<path d="M1877 930 c-138 -35 -237 -157 -237 -293 l0 -51 -165 -166 -165 -166
0 -111 c0 -144 -1 -143 150 -143 l114 0 165 164 166 164 72 4 c111 8 197 69
245 173 32 70 31 180 -1 252 -56 125 -215 205 -344 173z m165 -111 c141 -71
153 -270 20 -363 -36 -26 -55 -31 -122 -36 l-80 -5 -163 -163 -164 -163 -64 3
-64 3 -2 60 -1 60 169 171 169 170 -6 45 c-12 85 29 170 101 210 72 41 136 43
207 8z"/>
<path d="M1988 739 c-36 -21 -16 -79 27 -79 44 0 63 60 26 80 -24 12 -31 12
-53 -1z"/>
</g>
</svg>
