<?xml version="1.0" standalone="no"?>
<!DOCTYPE svg PUBLIC "-//W3C//DTD SVG 20010904//EN"
 "http://www.w3.org/TR/2001/REC-SVG-20010904/DTD/svg10.dtd">
<svg version="1.0" xmlns="http://www.w3.org/2000/svg"
 width="257.000000pt" height="196.000000pt" viewBox="0 0 257.000000 196.000000"
 preserveAspectRatio="xMidYMid meet">

<g transform="translate(0.000000,196.000000) scale(0.100000,-0.100000)"
fill="#000000" stroke="none">
<path d="M1140 1885 c-262 -52 -480 -248 -567 -510 -24 -71 -27 -96 -27 -220
-1 -153 15 -228 74 -345 93 -184 278 -333 480 -387 88 -24 281 -24 370 0 232
61 422 231 513 457 37 93 50 185 45 314 -6 130 -35 229 -100 341 -49 84 -171
207 -250 254 -168 98 -358 132 -538 96z m330 -85 c84 -22 202 -92 278 -164 84
-80 139 -166 179 -281 24 -72 27 -93 27 -210 0 -124 -2 -134 -35 -220 -19 -49
-51 -116 -72 -147 -87 -130 -254 -249 -398 -283 -83 -19 -248 -19 -324 0 -189
48 -355 183 -438 356 -57 118 -71 178 -71 304 0 290 191 549 472 640 101 33
270 35 382 5z"/>
<path d="M1169 1657 c-76 -17 -123 -54 -143 -114 -16 -47 -20 -148 -7 -193 6
-22 9 -19 20 28 l13 52 224 0 223 0 11 -42 c6 -24 13 -47 14 -53 8 -25 18 74
14 135 -10 139 -65 186 -223 195 -55 3 -112 0 -146 -8z"/>
<path d="M818 1343 c27 -32 59 -67 71 -77 15 -13 18 -23 11 -31 -7 -8 -4 -18
11 -31 12 -10 62 -63 111 -117 103 -111 102 -105 10 -169 -44 -30 -45 -35 -10
-81 12 -17 16 -16 59 11 l45 29 27 -23 c26 -22 26 -23 11 -59 -8 -21 -14 -38
-12 -40 10 -8 48 -25 56 -25 6 0 13 19 17 43 3 23 9 50 12 60 10 35 40 -10 78
-119 21 -57 43 -112 51 -121 12 -17 15 -15 49 17 l36 36 -16 38 c-9 21 -14 45
-11 53 6 15 -480 536 -493 528 -4 -2 -39 27 -76 65 -84 85 -106 92 -37 13z
m370 -467 c3 -13 -1 -17 -14 -14 -11 2 -20 11 -22 22 -3 13 1 17 14 14 11 -2
20 -11 22 -22z"/>
<path d="M1085 1368 c-21 -66 -23 -92 -9 -127 49 -117 195 -171 304 -111 56
32 110 101 110 142 0 17 -5 48 -12 69 l-11 39 -189 0 c-142 0 -190 -3 -193
-12z"/>
<path d="M1216 1019 c39 -41 105 -110 146 -153 l76 -80 32 27 c62 53 154 29
181 -48 15 -41 18 -42 53 -14 34 27 34 69 0 137 -40 81 -143 157 -261 192 -35
11 -47 10 -75 -3 -51 -24 -97 -27 -142 -11 -81 30 -81 27 -10 -47z"/>
<path d="M969 1012 c-105 -67 -173 -209 -121 -254 31 -28 102 -59 180 -79 84
-21 272 -37 272 -23 0 19 -34 104 -42 104 -4 0 -8 -12 -8 -27 0 -60 -14 -59
-138 3 -2 1 4 19 13 40 22 52 7 62 -47 30 -25 -14 -48 -26 -51 -26 -3 0 -25
27 -47 60 l-41 60 44 20 c25 12 54 31 66 44 l21 23 -21 26 c-11 15 -24 27 -28
27 -4 0 -27 -13 -52 -28z"/>
<path d="M1480 785 c-33 -36 -31 -91 5 -122 81 -70 189 43 115 122 -32 34 -88
34 -120 0z"/>
<path d="M900 170 c0 -82 3 -100 15 -100 11 0 15 12 16 43 l1 42 9 -33 c13
-44 25 -40 35 11 l8 42 4 -53 c2 -36 7 -52 15 -49 18 6 21 197 2 197 -7 0 -21
-23 -31 -52 l-18 -53 -14 53 c-9 30 -21 52 -28 52 -11 0 -14 -23 -14 -100z"/>
<path d="M1040 170 c0 -82 3 -100 15 -100 12 0 15 18 15 100 0 82 -3 100 -15
100 -12 0 -15 -18 -15 -100z"/>
<path d="M1090 170 l0 -100 40 0 c29 0 40 4 40 15 0 9 -9 15 -25 15 -25 0 -25
1 -25 85 0 69 -3 85 -15 85 -12 0 -15 -18 -15 -100z"/>
<path d="M1190 171 c0 -84 3 -101 15 -101 13 0 15 15 13 97 -2 66 -7 98 -15
101 -10 3 -13 -21 -13 -97z"/>
<path d="M1230 255 c0 -8 7 -15 15 -15 11 0 15 -18 17 -82 2 -54 7 -83 16 -86
9 -3 12 18 12 82 0 70 3 86 15 86 8 0 15 7 15 15 0 11 -12 15 -45 15 -33 0
-45 -4 -45 -15z"/>
<path d="M1361 218 c-27 -131 -29 -148 -16 -148 7 0 15 9 18 20 7 26 37 26 44
0 3 -11 12 -20 20 -20 9 0 12 7 9 18 -2 9 -7 33 -11 52 -25 144 -46 168 -64
78z m33 -50 c6 -32 4 -38 -10 -38 -12 0 -15 6 -10 23 3 12 6 31 6 41 0 28 6
16 14 -26z"/>
<path d="M1455 258 c-10 -29 0 -181 13 -186 9 -3 12 18 12 82 0 79 2 86 20 86
16 0 20 -7 20 -30 0 -21 -5 -30 -16 -30 -10 0 -14 -6 -11 -14 3 -8 11 -32 18
-55 7 -23 18 -41 26 -41 17 0 17 12 -1 55 -13 31 -13 35 0 35 12 0 14 11 12
53 l-3 52 -43 3 c-28 2 -44 -1 -47 -10z"/>
<path d="M1580 214 c11 -31 20 -77 20 -101 0 -32 4 -43 15 -43 11 0 15 11 15
38 0 22 9 65 20 97 24 69 24 65 5 65 -8 0 -19 -17 -26 -42 l-12 -43 -12 40
c-7 22 -19 41 -28 43 -15 3 -14 -3 3 -54z"/>
</g>
</svg>
