<?xml version="1.0" standalone="no"?>
<!DOCTYPE svg PUBLIC "-//W3C//DTD SVG 20010904//EN"
 "http://www.w3.org/TR/2001/REC-SVG-20010904/DTD/svg10.dtd">
<svg version="1.0" xmlns="http://www.w3.org/2000/svg"
 width="225.000000pt" height="225.000000pt" viewBox="0 0 225.000000 225.000000"
 preserveAspectRatio="xMidYMid meet">

<g transform="translate(0.000000,225.000000) scale(0.100000,-0.100000)"
fill="#000000" stroke="none">
<path d="M483 1843 l-33 -4 0 -715 0 -714 55 0 c52 0 55 1 55 25 0 21 -5 25
-30 25 l-30 0 0 670 0 670 30 0 c25 0 30 4 30 25 0 26 -3 27 -77 18z"/>
<path d="M600 1125 l0 -725 520 0 520 0 0 165 0 165 -25 -12 c-25 -11 -25 -12
-25 -140 l0 -128 -470 0 -470 0 0 675 0 675 470 0 470 0 0 -248 0 -249 25 -11
25 -12 0 285 0 285 -520 0 -520 0 0 -725z"/>
<path d="M1160 1521 c0 -182 1 -191 19 -191 11 0 22 8 24 18 3 9 4 94 3 187
-1 168 -1 170 -23 173 l-23 3 0 -190z"/>
<path d="M1284 1627 c-2 -7 -3 -76 -2 -152 3 -137 4 -140 26 -143 l22 -3 0
155 c0 150 -1 156 -20 156 -11 0 -23 -6 -26 -13z"/>
<path d="M917 1624 c-4 -4 -7 -71 -7 -150 0 -118 3 -143 15 -148 24 -9 26 8
23 159 -3 129 -10 160 -31 139z"/>
<path d="M1410 1455 c0 -125 0 -126 23 -123 21 3 22 6 22 123 0 117 -1 120
-22 123 -23 3 -23 2 -23 -123z"/>
<path d="M787 1564 c-13 -14 -8 -221 6 -232 30 -25 38 2 35 119 -2 93 -6 114
-18 117 -9 1 -19 0 -23 -4z"/>
<path d="M1037 1544 c-13 -13 -8 -201 6 -212 29 -25 38 2 35 109 -2 84 -6 104
-18 107 -9 1 -19 0 -23 -4z"/>
<path d="M1434 1259 c-62 -18 -127 -73 -158 -132 -56 -109 -34 -231 57 -314
83 -76 193 -90 298 -37 l46 23 29 -30 c22 -23 28 -37 25 -65 -2 -33 5 -43 112
-152 106 -107 118 -116 152 -116 29 0 43 7 61 28 44 51 35 70 -93 199 -114
114 -119 118 -156 115 -32 -3 -42 1 -69 29 -30 31 -30 34 -15 51 9 10 23 37
32 61 69 198 -120 398 -321 340z m154 -55 c150 -62 178 -263 51 -366 -47 -38
-132 -56 -186 -40 -113 34 -183 151 -154 258 34 128 170 198 289 148z m338
-566 c108 -106 126 -140 83 -153 -18 -6 -40 11 -125 96 -57 57 -104 111 -104
121 0 14 23 36 39 38 2 0 50 -46 107 -102z"/>
<path d="M1530 1025 l-64 -65 -26 25 c-50 48 -81 16 -34 -35 56 -61 58 -60
145 26 44 43 79 87 79 96 0 35 -36 18 -100 -47z"/>
<path d="M794 1096 c-13 -33 7 -36 202 -36 l195 0 -3 23 c-3 22 -4 22 -196 25
-162 2 -193 0 -198 -12z"/>
<path d="M793 959 c-6 -6 -9 -18 -6 -25 8 -21 398 -21 406 0 12 31 -16 36
-203 36 -124 0 -190 -4 -197 -11z"/>
<path d="M815 821 c-17 -4 -30 -12 -30 -21 0 -13 31 -15 199 -18 197 -2 235 3
209 29 -12 12 -325 20 -378 10z"/>
<path d="M790 660 c0 -20 4 -20 338 -18 292 3 337 5 337 18 0 13 -45 15 -337
18 -334 2 -338 2 -338 -18z"/>
</g>
</svg>
