<?xml version="1.0" standalone="no"?>
<!DOCTYPE svg PUBLIC "-//W3C//DTD SVG 20010904//EN"
 "http://www.w3.org/TR/2001/REC-SVG-20010904/DTD/svg10.dtd">
<svg version="1.0" xmlns="http://www.w3.org/2000/svg"
 width="225.000000pt" height="225.000000pt" viewBox="0 0 225.000000 225.000000"
 preserveAspectRatio="xMidYMid meet">

<g transform="translate(0.000000,225.000000) scale(0.100000,-0.100000)"
fill="#000000" stroke="none">
<path d="M1076 1849 c-14 -11 -26 -29 -26 -38 0 -15 -10 -19 -55 -23 -56 -5
-105 -35 -105 -65 0 -10 -20 -13 -80 -13 -91 0 -128 -13 -138 -49 -4 -14 -7
-268 -6 -565 l0 -539 23 -18 c22 -18 48 -19 441 -19 411 0 417 0 436 21 18 20
19 46 22 557 2 374 -1 544 -8 563 -16 38 -49 49 -148 49 -86 0 -87 0 -104 30
-20 35 -53 50 -109 50 -28 0 -39 4 -39 15 0 20 -44 65 -63 65 -8 0 -26 -9 -41
-21z m44 -9 c0 -5 -5 -10 -11 -10 -5 0 -7 5 -4 10 3 6 8 10 11 10 2 0 4 -4 4
-10z m428 -719 c1 -393 -1 -548 -9 -557 -16 -19 -808 -21 -827 -2 -9 9 -12
144 -12 544 0 293 3 540 6 548 6 15 49 16 423 14 l416 -3 3 -544z"/>
<path d="M1072 1595 c-79 -66 -6 -184 89 -145 80 34 61 148 -27 166 -24 4 -37
0 -62 -21z"/>
<path d="M1029 1391 c-58 -31 -79 -73 -79 -157 l0 -74 175 0 175 0 0 74 c0 85
-22 129 -80 159 -39 19 -32 24 -62 -48 l-13 -30 -3 48 c-2 28 -8 47 -15 47 -8
0 -11 -16 -8 -51 4 -60 -9 -59 -29 1 -7 23 -17 43 -20 45 -4 2 -22 -4 -41 -14z"/>
<path d="M790 1005 c0 -13 44 -15 335 -15 291 0 335 2 335 15 0 13 -44 15
-335 15 -291 0 -335 -2 -335 -15z"/>
<path d="M790 886 c0 -7 9 -16 20 -19 34 -9 624 -7 639 2 42 26 -8 31 -330 31
-273 0 -329 -2 -329 -14z"/>
<path d="M800 770 c-41 -26 15 -30 331 -28 280 3 324 5 324 18 0 13 -43 15
-320 17 -177 1 -327 -2 -335 -7z"/>
<path d="M795 639 c-4 -6 -3 -15 2 -20 5 -5 144 -8 334 -7 280 3 324 5 324 18
0 13 -44 15 -327 18 -229 1 -329 -1 -333 -9z"/>
</g>
</svg>
