<?xml version="1.0" standalone="no"?>
<!DOCTYPE svg PUBLIC "-//W3C//DTD SVG 20010904//EN"
 "http://www.w3.org/TR/2001/REC-SVG-20010904/DTD/svg10.dtd">
<svg version="1.0" xmlns="http://www.w3.org/2000/svg"
 width="297.000000pt" height="170.000000pt" viewBox="0 0 297.000000 170.000000"
 preserveAspectRatio="xMidYMid meet">

<g transform="translate(0.000000,170.000000) scale(0.100000,-0.100000)"
fill="#000000" stroke="none">
<path d="M1145 1327 l-320 -184 0 -89 0 -89 55 -5 55 -5 3 -257 c2 -252 2
-258 -18 -258 -26 0 -43 -28 -76 -133 -22 -67 -26 -92 -18 -105 10 -16 59 -17
640 -20 346 -1 639 0 650 3 36 8 36 33 3 134 -35 107 -43 121 -70 121 -18 0
-19 12 -19 260 l0 260 48 0 c26 0 53 5 60 12 13 13 17 145 4 164 -11 19 -638
374 -659 374 -10 0 -162 -83 -338 -183z m794 -163 c2 -2 -204 -4 -459 -4
l-464 0 234 133 234 133 225 -129 c124 -71 228 -130 230 -133z m129 -106 c3
-17 -30 -18 -582 -18 -580 0 -586 0 -586 20 0 20 5 20 582 18 546 -3 583 -4
586 -20z m-953 -358 l0 -255 -47 -3 -48 -3 0 261 0 261 48 -3 47 -3 0 -255z
m175 0 l0 -260 -45 0 -45 0 0 260 0 260 45 0 45 0 0 -260z m300 0 l0 -261
-107 3 -108 3 -1 250 c0 138 1 253 3 258 2 4 51 7 109 7 l104 0 0 -260z m180
0 l0 -260 -50 0 -50 0 0 253 c0 140 3 257 7 260 3 4 26 7 50 7 l43 0 0 -260z
m180 0 l0 -260 -50 0 -50 0 0 260 0 260 50 0 50 0 0 -260z m84 -383 c9 -23 16
-46 16 -50 0 -4 -254 -7 -565 -7 -622 0 -579 -5 -550 64 l15 36 534 0 533 0
17 -43z"/>
</g>
</svg>
