<?xml version="1.0" standalone="no"?>
<!DOCTYPE svg PUBLIC "-//W3C//DTD SVG 20010904//EN"
 "http://www.w3.org/TR/2001/REC-SVG-20010904/DTD/svg10.dtd">
<svg version="1.0" xmlns="http://www.w3.org/2000/svg"
 width="920.000000pt" height="980.000000pt" viewBox="0 0 920.000000 980.000000"
 preserveAspectRatio="xMidYMid meet">

<g transform="translate(0.000000,980.000000) scale(0.100000,-0.100000)"
fill="#000000" stroke="none">
<path d="M4270 9790 c-189 -24 -503 -101 -676 -166 -370 -138 -782 -417 -1041
-704 -414 -459 -651 -986 -714 -1590 -15 -145 -6 -529 16 -665 54 -342 151
-628 312 -920 102 -186 192 -317 307 -449 l60 -68 -42 -82 c-118 -232 -290
-425 -469 -530 -71 -42 -113 -87 -113 -123 0 -15 13 -38 33 -58 47 -47 116
-59 292 -52 322 14 523 79 889 290 42 24 60 19 261 -73 371 -169 579 -225 925
-250 204 -14 476 -12 600 4 1116 150 2018 949 2300 2039 54 209 60 267 67 623
7 371 -2 478 -57 691 -138 532 -384 956 -775 1331 -205 197 -405 340 -657 468
-283 144 -594 239 -873 269 -170 18 -556 27 -645 15z m504 -1045 c86 -18 163
-63 226 -133 184 -200 147 -512 -81 -672 -80 -56 -157 -82 -244 -82 -125 0
-223 48 -327 161 -168 181 -168 411 1 593 79 86 204 142 331 147 14 0 56 -6
94 -14z m172 -1107 c56 -31 69 -62 68 -163 -1 -112 -16 -209 -115 -758 -93
-520 -119 -696 -119 -815 0 -76 3 -94 23 -123 44 -65 126 -62 311 11 124 50
173 52 194 7 19 -40 2 -76 -76 -159 -122 -129 -261 -214 -398 -243 -80 -17
-405 -20 -498 -5 -89 14 -143 46 -231 134 -105 106 -137 166 -143 268 -7 117
6 210 138 983 39 231 72 448 73 482 2 53 -1 65 -23 88 -35 38 -67 52 -168 76
-97 22 -142 45 -168 83 -35 54 19 131 101 146 28 4 264 8 525 7 426 -2 478 -4
506 -19z"/>
<path d="M2920 3874 c-466 -261 -790 -416 -1375 -656 -494 -203 -733 -364
-887 -598 -265 -402 -348 -913 -348 -2136 l0 -484 4290 0 4290 0 0 463 c0
1288 -92 1811 -389 2207 -169 225 -363 350 -853 549 -415 169 -937 415 -1251
590 -166 92 -275 147 -281 140 -12 -13 -287 -867 -736 -2289 -95 -300 -176
-549 -180 -554 -13 -13 -52 72 -125 274 -139 380 -245 704 -239 725 4 11 32
61 64 110 114 181 210 382 247 519 22 84 22 207 -1 277 -37 117 -148 217 -289
261 -64 20 -93 23 -252 23 -143 0 -193 -4 -245 -19 -101 -28 -170 -65 -226
-121 -114 -114 -131 -286 -52 -515 33 -93 136 -297 204 -402 24 -38 53 -86 64
-109 l21 -41 -71 -211 c-106 -313 -238 -674 -267 -730 -13 -27 -28 -46 -33
-41 -4 5 -85 254 -180 554 -361 1142 -455 1436 -577 1805 -150 454 -161 485
-176 485 -7 0 -73 -34 -147 -76z"/>
</g>
</svg>
