<?xml version="1.0" standalone="no"?>
<!DOCTYPE svg PUBLIC "-//W3C//DTD SVG 20010904//EN"
 "http://www.w3.org/TR/2001/REC-SVG-20010904/DTD/svg10.dtd">
<svg version="1.0" xmlns="http://www.w3.org/2000/svg"
 width="225.000000pt" height="225.000000pt" viewBox="0 0 225.000000 225.000000"
 preserveAspectRatio="xMidYMid meet">

<g transform="translate(0.000000,225.000000) scale(0.100000,-0.100000)"
fill="#000000" stroke="none">
<path d="M254 2199 c-83 -24 -180 -123 -204 -207 -14 -53 -12 -141 5 -199 20
-68 89 -144 163 -179 76 -37 183 -40 255 -7 73 34 63 75 -20 86 -113 14 -195
146 -163 262 24 86 99 145 200 157 20 2 25 9 25 32 0 27 -5 32 -50 47 -54 20
-159 23 -211 8z m86 -56 c0 -5 -15 -20 -33 -34 -18 -14 -46 -50 -62 -80 -26
-47 -30 -64 -30 -129 1 -91 31 -158 96 -214 48 -40 45 -43 -29 -21 -129 39
-204 174 -167 301 21 73 88 142 160 166 58 20 65 21 65 11z"/>
<path d="M1872 2198 c-7 -7 -12 -37 -12 -70 l0 -58 -58 0 c-32 0 -63 -5 -70
-12 -7 -7 -12 -43 -12 -89 0 -96 10 -109 86 -109 l54 0 0 -121 c0 -66 5 -129
10 -140 9 -16 22 -19 93 -19 51 0 88 5 95 12 8 8 12 54 12 140 l0 128 59 0
c38 0 63 5 70 14 8 9 11 46 9 103 l-3 88 -65 5 -65 5 -5 65 -5 65 -90 3 c-62
2 -94 -1 -103 -10z m129 -55 c1 -5 3 -32 4 -61 2 -30 7 -58 11 -62 5 -5 36
-10 69 -13 l60 -4 0 -34 0 -34 -60 -3 c-33 -2 -64 -7 -68 -11 -5 -5 -9 -66
-10 -137 l-2 -129 -37 -3 -37 -3 -3 138 -3 138 -68 3 -68 3 3 37 3 37 55 3
c80 3 80 4 80 70 0 32 3 62 7 65 9 9 63 9 64 0z"/>
<path d="M1110 2075 c0 -33 2 -35 35 -35 33 0 35 2 35 35 0 33 -2 35 -35 35
-33 0 -35 -2 -35 -35z"/>
<path d="M968 2095 c-2 -3 -3 -18 0 -35 4 -27 8 -30 38 -30 32 0 34 2 34 35 0
33 -2 35 -33 35 -19 0 -36 -2 -39 -5z"/>
<path d="M1250 2066 c0 -28 4 -35 26 -40 31 -8 39 -2 48 35 5 24 2 27 -25 33
-48 9 -49 8 -49 -28z"/>
<path d="M855 2073 c-32 -8 -37 -18 -24 -47 11 -23 17 -26 38 -21 14 4 28 8
29 10 6 6 -9 65 -16 64 -4 -1 -16 -3 -27 -6z"/>
<path d="M1391 2038 c-13 -37 -13 -36 26 -44 27 -5 31 -3 41 24 10 29 9 31
-20 41 -17 6 -32 11 -34 11 -1 0 -7 -14 -13 -32z"/>
<path d="M461 2013 c-37 -49 -41 -53 -64 -53 -25 0 -47 -17 -47 -36 0 -6 11
-23 26 -39 20 -21 24 -36 22 -67 -4 -54 19 -71 62 -46 28 16 33 16 64 1 52
-24 70 -12 64 42 -5 37 -2 47 19 67 39 37 24 69 -38 82 -16 4 -30 17 -40 38
-18 42 -41 46 -68 11z m52 -133 c-7 -25 -40 -26 -45 -2 -5 22 23 44 38 31 7
-5 10 -19 7 -29z"/>
<path d="M1521 1984 c-6 -15 -10 -28 -9 -29 2 -1 14 -8 27 -15 22 -11 27 -10
43 10 24 29 23 35 -7 48 -36 17 -40 15 -54 -14z"/>
<path d="M985 1631 c-223 -64 -370 -249 -383 -481 -8 -152 44 -286 153 -395
207 -207 537 -207 740 -1 207 211 207 533 0 741 -132 133 -334 187 -510 136z
m278 -70 c149 -52 258 -164 301 -310 42 -145 -6 -347 -104 -436 -20 -18 -20
-17 -20 92 0 75 -5 122 -15 146 -18 44 -79 95 -122 103 -37 7 -38 9 -18 44 56
98 -38 240 -158 240 -123 0 -218 -142 -162 -240 20 -35 19 -37 -20 -44 -43 -8
-103 -59 -121 -103 -9 -21 -14 -73 -14 -144 0 -111 0 -112 -20 -94 -96 87
-145 285 -106 432 27 102 112 212 209 272 99 61 261 79 370 42z m-90 -202 c31
-14 57 -59 57 -99 0 -41 -56 -100 -95 -100 -40 0 -91 27 -104 56 -42 94 48
186 142 143z m163 -303 l34 -34 0 -140 c0 -108 -3 -142 -14 -151 -22 -19 -27
0 -25 101 3 152 3 148 -31 148 l-30 0 0 -145 0 -144 -37 -10 c-49 -14 -167
-14 -215 0 l-38 10 0 144 0 145 -32 0 -33 0 2 -126 c2 -113 0 -125 -15 -122
-15 3 -17 21 -20 146 l-3 143 35 35 34 34 177 0 177 0 34 -34z"/>
<path d="M217 1505 l-16 -33 31 -13 c27 -11 32 -10 44 6 21 28 17 43 -14 59
-28 15 -29 14 -45 -19z"/>
<path d="M2000 1487 c-14 -6 -26 -12 -28 -13 -2 -1 14 -44 23 -62 2 -3 65 19
65 22 0 13 -23 66 -28 65 -4 0 -18 -5 -32 -12z"/>
<path d="M172 1368 c-10 -36 -1 -48 35 -48 16 0 25 8 29 26 7 28 0 38 -33 48
-19 6 -23 2 -31 -26z"/>
<path d="M2043 1353 c-19 -4 -23 -11 -23 -39 0 -27 4 -34 19 -34 32 0 51 11
51 30 0 24 -10 50 -19 49 -3 -1 -16 -4 -28 -6z"/>
<path d="M146 1225 c-9 -34 -1 -45 33 -45 21 0 30 6 35 23 11 41 7 47 -28 47
-28 0 -35 -4 -40 -25z"/>
<path d="M2040 1175 c0 -33 2 -35 35 -35 33 0 35 2 35 35 0 33 -2 35 -35 35
-33 0 -35 -2 -35 -35z"/>
<path d="M140 1075 c0 -33 2 -35 35 -35 33 0 35 2 35 35 0 33 -2 35 -35 35
-33 0 -35 -2 -35 -35z"/>
<path d="M2035 1039 c-8 -36 -9 -34 31 -42 29 -6 32 -4 38 25 8 39 1 48 -34
48 -24 0 -30 -5 -35 -31z"/>
<path d="M160 943 c0 -42 11 -51 46 -41 27 7 30 11 26 38 -4 27 -8 30 -38 30
-30 0 -34 -3 -34 -27z"/>
<path d="M2012 900 c-12 -32 -10 -34 29 -44 19 -4 29 -1 33 10 11 28 6 52 -10
58 -30 11 -42 6 -52 -24z"/>
<path d="M328 793 c-8 -10 -32 -50 -53 -90 l-37 -72 -96 -3 c-120 -4 -123 -9
-61 -125 l44 -83 -43 -80 c-24 -45 -42 -90 -40 -103 3 -21 9 -22 101 -27 l98
-5 43 -80 c60 -110 75 -109 136 2 l45 82 91 1 c129 0 132 6 71 121 l-48 89 47
90 c59 115 56 120 -70 120 l-91 0 -39 76 c-54 105 -70 119 -98 87z m38 -120
c22 -29 16 -43 -16 -43 -34 0 -34 0 -18 35 13 30 17 30 34 8z m-181 -143 c-9
-16 -18 -30 -20 -30 -2 0 -11 14 -20 30 l-16 30 36 0 36 0 -16 -30z m278 -40
l38 -69 -38 -71 -38 -70 -74 2 -75 3 -35 66 -36 67 35 71 34 71 76 0 76 0 37
-70z m107 62 c0 -4 -7 -18 -16 -31 l-17 -24 -13 24 c-19 35 -17 39 16 39 17 0
30 -3 30 -8z m-385 -242 l16 -30 -36 0 -36 0 16 30 c9 17 18 30 20 30 2 0 11
-13 20 -30z m373 5 c16 -35 16 -35 -18 -35 -16 0 -30 2 -30 5 0 11 24 55 30
55 4 0 12 -11 18 -25z m-178 -112 c-1 -5 -7 -19 -14 -32 l-13 -24 -17 24 c-23
33 -20 39 14 39 17 0 30 -3 30 -7z"/>
<path d="M1787 730 c-102 -26 -199 -106 -243 -203 -24 -52 -29 -75 -29 -142 0
-71 4 -89 33 -147 37 -75 100 -138 172 -172 36 -17 64 -21 145 -21 118 0 171
20 245 95 74 74 95 127 95 245 0 116 -16 160 -84 237 -78 88 -224 135 -334
108z m134 -83 c39 -26 59 -60 59 -102 0 -62 -63 -125 -125 -125 -31 0 -93 -25
-118 -48 -34 -30 -57 -89 -57 -143 l0 -52 -25 23 c-75 71 -93 211 -40 315 35
69 84 111 157 136 71 25 108 24 149 -4z m200 -150 c72 -162 -31 -353 -207
-386 -118 -22 -195 65 -154 173 12 32 65 66 105 66 39 1 104 31 132 61 31 34
53 92 53 140 l0 42 24 -22 c13 -13 35 -46 47 -74z"/>
<path d="M1840 585 c-6 -8 -10 -22 -8 -32 4 -24 47 -24 62 0 9 15 7 21 -8 33
-25 18 -31 18 -46 -1z"/>
<path d="M1834 225 c-10 -25 4 -45 30 -45 13 0 26 7 30 15 9 25 -5 45 -30 45
-14 0 -27 -7 -30 -15z"/>
<path d="M791 237 c-6 -16 -11 -31 -11 -33 0 -4 63 -24 67 -20 2 2 7 17 12 33
8 28 7 31 -24 41 -32 9 -34 8 -44 -21z"/>
<path d="M1368 243 c-18 -5 -26 -57 -10 -66 17 -11 62 6 62 23 0 44 -12 54
-52 43z"/>
<path d="M930 211 c0 -11 -2 -26 -6 -34 -7 -19 56 -33 68 -15 16 25 9 56 -14
62 -38 10 -48 7 -48 -13z"/>
<path d="M1210 185 c0 -33 2 -35 35 -35 33 0 35 2 35 35 0 33 -2 35 -35 35
-33 0 -35 -2 -35 -35z"/>
<path d="M1070 175 c0 -33 2 -35 35 -35 33 0 35 2 35 35 0 33 -2 35 -35 35
-33 0 -35 -2 -35 -35z"/>
</g>
</svg>
