<?xml version="1.0" standalone="no"?>
<!DOCTYPE svg PUBLIC "-//W3C//DTD SVG 20010904//EN"
 "http://www.w3.org/TR/2001/REC-SVG-20010904/DTD/svg10.dtd">
<svg version="1.0" xmlns="http://www.w3.org/2000/svg"
 width="360.000000pt" height="360.000000pt" viewBox="0 0 360.000000 360.000000"
 preserveAspectRatio="xMidYMid meet">

<g transform="translate(0.000000,360.000000) scale(0.100000,-0.100000)"
fill="#000000" stroke="none">
<path d="M1520 3506 c-140 -52 -469 -171 -730 -266 -261 -95 -487 -178 -502
-186 -15 -8 -34 -27 -42 -42 -27 -53 -41 -274 -41 -642 1 -310 4 -376 23 -520
87 -641 312 -1115 687 -1450 216 -192 518 -340 788 -386 90 -15 104 -15 194 0
388 66 772 308 1029 648 243 323 384 707 450 1223 30 240 29 742 -3 1046 -12
117 48 87 -802 396 -414 150 -763 273 -775 272 -11 0 -136 -42 -276 -93z m926
-371 c357 -129 663 -242 680 -249 31 -14 31 -15 38 -113 41 -608 -9 -1093
-156 -1493 -183 -500 -532 -857 -983 -1004 -138 -45 -209 -54 -295 -40 -156
27 -350 107 -502 207 -588 386 -862 1156 -797 2237 6 102 15 189 19 193 4 5
309 118 676 252 368 134 669 244 670 244 1 1 293 -105 650 -234z"/>
<path d="M1617 2750 c-105 -19 -199 -91 -246 -190 -25 -53 -26 -63 -29 -266
l-3 -212 -54 -4 c-38 -3 -64 -12 -89 -32 -67 -51 -66 -43 -66 -471 0 -428 -1
-420 67 -472 l36 -28 568 0 c560 0 568 0 596 21 15 11 38 36 51 54 22 33 22
35 22 425 0 390 0 392 -22 425 -36 52 -71 73 -132 78 l-55 4 -3 212 c-3 197
-5 214 -27 264 -30 66 -122 153 -188 177 -55 20 -342 30 -426 15z m372 -236
c43 -31 51 -70 51 -259 l0 -175 -240 0 -240 0 0 178 c0 149 3 183 18 212 27
54 48 60 227 60 132 0 165 -3 184 -16z m-111 -680 c35 -23 62 -75 62 -119 0
-42 -29 -102 -55 -111 -12 -5 -15 -31 -15 -148 0 -97 -4 -146 -12 -154 -16
-16 -100 -16 -116 0 -8 8 -12 57 -12 154 0 117 -3 143 -15 148 -26 10 -55 69
-55 112 0 109 126 178 218 118z"/>
</g>
</svg>
