<?xml version="1.0" standalone="no"?>
<!DOCTYPE svg PUBLIC "-//W3C//DTD SVG 20010904//EN"
 "http://www.w3.org/TR/2001/REC-SVG-20010904/DTD/svg10.dtd">
<svg version="1.0" xmlns="http://www.w3.org/2000/svg"
 width="225.000000pt" height="225.000000pt" viewBox="0 0 225.000000 225.000000"
 preserveAspectRatio="xMidYMid meet">

<g transform="translate(0.000000,225.000000) scale(0.100000,-0.100000)"
fill="#000000" stroke="none">
<path d="M527 2083 c-62 -21 -140 -91 -175 -157 -23 -44 -27 -63 -27 -141 0
-75 4 -97 23 -133 61 -114 156 -174 280 -178 l76 -2 77 -153 77 -154 -45 -48
c-83 -89 -116 -208 -90 -328 l7 -36 -71 -42 -71 -41 -34 30 c-47 41 -80 56
-144 68 -139 25 -275 -42 -341 -168 -20 -38 -24 -60 -24 -140 0 -79 4 -102 23
-137 35 -67 79 -110 144 -143 51 -25 73 -30 132 -30 101 0 159 23 227 90 80
79 109 180 86 297 l-8 41 65 37 66 37 51 -46 c70 -63 143 -90 244 -90 66 0 90
4 137 26 76 35 148 104 178 170 13 29 25 54 26 56 0 1 38 -15 84 -36 l83 -38
-2 -67 c-3 -93 19 -154 80 -221 176 -192 490 -103 539 154 21 110 -18 222
-106 298 -61 54 -126 75 -217 70 -84 -4 -141 -29 -204 -91 l-42 -41 -97 45
-98 44 -11 55 c-14 67 -45 129 -90 179 l-35 38 54 89 c43 70 58 88 72 84 11
-3 57 -5 104 -5 72 1 93 5 136 27 52 27 112 86 137 135 27 52 39 137 28 197
-13 72 -40 122 -93 173 -61 60 -125 85 -213 86 -168 1 -301 -120 -313 -284 -6
-87 10 -144 59 -214 l38 -55 -53 -88 c-41 -68 -57 -86 -72 -83 -10 2 -67 4
-125 5 l-107 1 -73 147 -73 148 43 41 c49 47 86 121 96 190 9 59 -16 157 -53
212 -76 115 -230 165 -365 120z m172 -117 c20 -18 37 -131 22 -150 -15 -19
-29 -73 -22 -84 3 -5 32 -22 64 -36 60 -26 77 -50 69 -93 l-4 -23 -192 2 -191
3 3 35 c3 42 26 67 78 85 51 17 61 34 43 73 -8 18 -18 32 -23 32 -10 0 2 107
15 132 21 39 42 50 82 45 21 -3 47 -13 56 -21z m893 -126 c36 -28 44 -113 17
-170 -26 -53 -18 -77 32 -91 59 -18 91 -52 87 -92 l-3 -32 -195 0 -195 0 -3
32 c-4 39 32 80 77 89 17 4 38 15 47 25 16 18 16 22 -8 67 -18 33 -23 53 -18
67 5 11 9 33 9 50 2 64 98 99 153 55z m-534 -722 l-3 -63 -35 2 c-72 6 -80 10
-69 39 20 54 49 84 80 84 l30 0 -3 -62z m124 7 c15 -27 24 -53 20 -56 -4 -4
-31 -10 -59 -14 l-53 -7 0 67 0 66 33 -3 c27 -3 36 -11 59 -53z m-242 18 c-1
-5 -9 -22 -18 -39 -15 -28 -20 -31 -42 -22 l-25 10 35 29 c34 29 50 36 50 22z
m320 -23 c35 -29 35 -30 -11 -34 -6 -1 -17 14 -24 32 -17 40 -9 40 35 2z
m-369 -83 c0 -13 -12 -102 -17 -124 -4 -20 -11 -23 -54 -23 -46 0 -50 2 -50
24 0 29 18 81 42 123 18 30 21 31 49 19 17 -7 30 -16 30 -19z m469 -42 c10
-22 20 -55 24 -72 l6 -33 -54 0 -54 0 -11 63 c-15 88 -15 92 17 103 32 13 44
2 72 -61z m-312 19 c8 -2 12 -24 12 -64 l0 -60 -76 0 -77 0 7 54 c10 85 10 86
69 80 29 -3 58 -7 65 -10z m175 3 c3 -8 8 -39 12 -70 l7 -57 -76 0 -76 0 0 64
0 65 43 4 c23 2 52 4 63 5 12 1 24 -4 27 -11z m-345 -227 c16 -91 17 -86 -17
-98 -22 -8 -32 -7 -40 2 -21 26 -51 102 -51 134 0 32 0 32 48 32 l48 0 12 -70z
m180 4 l3 -62 -61 -7 c-34 -4 -66 -3 -71 2 -5 5 -12 37 -15 71 l-7 63 74 -3
74 -3 3 -61z m178 4 c-3 -34 -10 -66 -14 -70 -5 -5 -34 -6 -64 -2 l-56 7 -4
41 c-7 84 -5 86 74 86 l71 0 -7 -62z m141 17 c-6 -43 -38 -118 -54 -128 -5 -3
-23 1 -40 8 -30 13 -32 16 -23 42 4 15 11 49 15 76 l6 47 51 0 51 0 -6 -45z
m599 10 c16 -10 22 -28 27 -75 4 -34 4 -67 0 -74 -5 -6 -13 -26 -20 -44 -10
-29 -9 -36 7 -52 10 -10 31 -21 46 -24 41 -10 63 -29 74 -65 13 -48 -5 -52
-212 -49 l-183 3 -3 26 c-4 37 31 75 88 94 57 19 61 32 29 84 -36 60 -7 173
51 194 20 8 70 -2 96 -18z m-918 -184 c4 -70 0 -79 -36 -73 -21 3 -35 14 -50
40 -32 59 -32 75 3 83 17 4 41 6 55 6 23 -2 25 -6 28 -56z m129 43 l22 -6 -26
-53 c-21 -43 -32 -54 -55 -57 -15 -3 -30 -2 -33 0 -3 3 -5 32 -5 64 l0 58 38
0 c20 0 47 -3 59 -6z m-770 -19 c14 -10 23 -30 27 -62 9 -75 8 -87 -10 -100
-10 -7 -17 -27 -18 -50 -1 -32 3 -39 29 -50 65 -29 80 -40 95 -66 14 -26 7
-62 -13 -58 -4 0 -88 1 -187 1 l-180 0 0 33 c0 39 18 59 75 83 67 27 68 31 40
82 -26 47 -32 77 -15 87 6 3 10 21 10 40 0 62 91 99 147 60z m506 -30 c20 -42
15 -43 -31 -9 -26 20 -31 29 -21 35 24 15 35 10 52 -26z m356 26 c10 -6 4 -15
-23 -36 -20 -15 -38 -26 -40 -24 -3 2 2 19 9 37 14 32 29 39 54 23z"/>
</g>
</svg>
