<?xml version="1.0" standalone="no"?>
<!DOCTYPE svg PUBLIC "-//W3C//DTD SVG 20010904//EN"
 "http://www.w3.org/TR/2001/REC-SVG-20010904/DTD/svg10.dtd">
<svg version="1.0" xmlns="http://www.w3.org/2000/svg"
 width="225.000000pt" height="225.000000pt" viewBox="0 0 225.000000 225.000000"
 preserveAspectRatio="xMidYMid meet">

<g transform="translate(0.000000,225.000000) scale(0.100000,-0.100000)"
fill="#000000" stroke="none">
<path d="M105 2077 c-3 -7 -4 -94 -3 -192 l3 -180 103 -3 102 -3 0 76 0 75
-30 0 c-27 0 -30 3 -30 30 0 27 3 30 30 30 29 0 30 2 30 44 0 54 24 76 82 76
34 0 38 -3 38 -25 0 -14 -4 -26 -10 -26 -5 -1 -14 -3 -20 -4 -5 -1 -14 -3 -20
-4 -5 0 -10 -14 -10 -31 0 -27 3 -30 31 -30 24 0 30 -3 25 -16 -3 -9 -6 -22
-6 -30 0 -8 -10 -14 -25 -14 -24 0 -25 -2 -25 -75 l0 -76 58 3 57 3 0 190 0
190 -188 3 c-147 2 -189 0 -192 -11z"/>
<path d="M710 2062 l-30 -30 0 -137 0 -137 29 -29 29 -29 136 0 c128 0 136 1
163 24 l28 24 0 146 c0 196 5 190 -185 194 l-140 4 -30 -30z m277 -46 c26 -23
28 -30 31 -115 4 -89 4 -91 -26 -121 -29 -28 -35 -30 -112 -30 -84 0 -132 15
-144 45 -3 9 -6 56 -6 105 0 86 1 89 31 114 28 23 39 26 114 26 74 0 87 -3
112 -24z"/>
<path d="M777 1992 c-21 -23 -24 -181 -5 -200 19 -19 183 -16 202 4 25 24 23
175 -2 197 -28 25 -172 24 -195 -1z m189 -13 c10 -17 -13 -36 -27 -22 -12 12
-4 33 11 33 5 0 12 -5 16 -11z m-41 -34 c14 -13 25 -36 25 -50 0 -34 -42 -75
-76 -75 -37 0 -74 36 -74 72 0 36 40 78 75 78 14 0 37 -11 50 -25z"/>
<path d="M842 1928 c-28 -28 -7 -78 33 -78 27 0 45 18 45 47 0 35 -53 56 -78
31z"/>
<path d="M1260 2062 l-30 -30 0 -137 0 -137 29 -29 29 -29 136 0 c128 0 136 1
163 24 l28 24 0 146 c0 196 5 190 -185 194 l-140 4 -30 -30z m272 -56 c20 -1
26 -6 24 -18 -1 -10 -5 -21 -9 -24 -4 -4 -7 -18 -7 -31 0 -33 -34 -97 -65
-121 -46 -36 -89 -45 -148 -31 -34 8 -45 14 -32 17 11 3 31 9 45 14 l24 9 -24
12 c-14 7 -25 20 -25 29 0 10 -6 23 -13 30 -16 16 -16 41 1 32 10 -6 10 -4 0
7 -7 7 -13 26 -13 41 l0 28 38 -24 c20 -14 49 -28 63 -31 23 -6 27 -3 32 22 6
32 42 56 67 46 8 -4 27 -7 42 -7z"/>
<path d="M1812 2080 c-41 -17 -54 -70 -50 -206 4 -170 2 -168 188 -172 l140
-4 30 30 30 30 0 137 0 137 -29 29 -29 29 -129 -1 c-70 0 -138 -4 -151 -9z
m280 -98 c17 -17 17 -157 0 -174 -9 -9 -51 -14 -130 -16 -148 -4 -154 0 -150
109 3 67 5 75 28 87 33 17 233 13 252 -6z"/>
<path d="M1930 1895 c0 -19 2 -35 5 -35 10 0 67 31 63 34 -1 2 -18 11 -35 20
l-33 17 0 -36z"/>
<path d="M117 1312 c-14 -16 -17 -43 -17 -173 0 -118 3 -160 14 -175 13 -17
30 -19 170 -22 155 -3 156 -3 181 22 24 25 25 28 25 173 0 205 12 193 -194
193 -145 0 -165 -2 -179 -18z m264 -60 c26 -23 32 -36 32 -68 0 -79 -63 -141
-114 -113 -15 8 -20 6 -25 -8 -3 -10 -13 -34 -22 -53 l-16 -35 -4 34 c-2 19 1
54 7 77 6 24 11 58 11 77 0 43 24 67 46 46 11 -12 12 -21 3 -47 -13 -39 -6
-62 19 -62 27 0 43 22 49 70 7 53 -15 80 -67 80 -56 0 -85 -36 -77 -95 5 -36
4 -45 -8 -45 -23 0 -38 43 -31 84 16 83 131 117 197 58z"/>
<path d="M724 1322 c-37 -26 -44 -56 -44 -189 0 -125 1 -133 24 -160 24 -27
27 -28 142 -31 212 -7 227 8 222 210 -3 128 -3 130 -31 154 -27 23 -35 24
-165 24 -75 0 -142 -4 -148 -8z m209 -46 c50 -21 79 -59 84 -110 11 -92 -39
-147 -142 -157 -33 -3 -68 -9 -77 -13 -14 -6 -18 -3 -18 14 0 12 -11 35 -24
50 -56 68 -34 169 47 209 49 24 85 26 130 7z"/>
<path d="M823 1168 c-34 -39 -38 -52 -9 -33 26 17 28 17 49 -4 l23 -21 35 37
34 36 -33 -19 c-34 -19 -34 -19 -52 4 -10 12 -20 22 -22 22 -3 0 -14 -10 -25
-22z"/>
<path d="M1269 1317 c-33 -25 -39 -55 -39 -186 0 -123 1 -131 24 -158 24 -27
27 -28 142 -31 212 -7 227 8 222 210 -3 128 -3 130 -31 154 -27 23 -35 24
-165 24 -92 -1 -142 -5 -153 -13z m221 -49 c136 -70 85 -277 -67 -269 -24 1
-55 3 -70 4 -16 1 -39 -2 -52 -7 -22 -8 -23 -7 -16 20 9 31 9 41 0 114 -8 61
18 108 75 138 24 12 54 22 65 22 11 0 41 -10 65 -22z"/>
<path d="M1346 1229 c-42 -37 -54 -81 -33 -130 9 -22 11 -43 6 -56 -7 -20 -6
-21 15 -13 13 5 29 4 37 -1 8 -5 33 -9 57 -9 55 0 110 47 118 101 18 113 -114
184 -200 108z m48 -35 c4 -9 4 -25 1 -35 -8 -23 40 -58 57 -41 8 8 17 8 30 1
26 -14 22 -38 -7 -45 -34 -8 -85 23 -110 68 -16 30 -17 39 -6 52 17 20 27 20
35 0z"/>
<path d="M1793 1306 c-27 -24 -28 -27 -31 -142 -7 -212 9 -228 215 -222 123 3
125 4 149 31 23 27 24 35 24 168 0 135 -1 141 -25 164 -23 24 -29 25 -164 25
-133 0 -141 -1 -168 -24z m278 -56 c43 -24 17 -104 -59 -182 -70 -73 -88 -66
-125 48 -19 61 -25 69 -44 66 -31 -4 -29 3 10 38 54 49 80 38 92 -41 10 -67
21 -80 45 -50 24 28 26 61 5 61 -41 0 3 57 53 69 2 1 12 -4 23 -9z"/>
<path d="M117 522 c-24 -27 -25 -332 -1 -356 13 -13 44 -16 179 -16 208 0 195
-13 195 197 0 204 11 193 -198 193 -141 0 -161 -2 -175 -18z m94 -52 c23 -13
25 -33 4 -50 -33 -27 -74 17 -43 48 15 15 15 15 39 2z m214 -103 c10 -14 15
-46 15 -89 l0 -68 -29 0 c-24 0 -29 5 -35 31 -3 17 -6 46 -6 65 0 36 -10 47
-34 38 -12 -5 -16 -21 -16 -70 l0 -64 -35 0 -35 0 0 90 0 90 50 -1 c28 -1 52
0 55 3 11 11 56 -5 70 -25z m-195 -67 l0 -90 -35 0 -35 0 0 90 0 90 35 0 35 0
0 -90z"/>
<path d="M710 512 l-30 -30 0 -137 0 -137 29 -29 29 -29 136 0 c128 0 136 1
163 24 l28 24 0 146 c0 196 5 190 -185 194 l-140 4 -30 -30z m227 -44 c50 -23
78 -74 88 -161 6 -54 5 -59 -24 -88 -30 -30 -32 -30 -99 -24 -126 14 -163 51
-177 177 -6 66 -6 69 24 99 29 29 34 30 88 24 32 -4 77 -16 100 -27z"/>
<path d="M842 433 c-12 -2 -27 -13 -33 -24 -18 -34 -2 -58 49 -72 35 -10 47
-19 47 -33 0 -28 -50 -32 -67 -5 -16 26 -38 27 -38 2 0 -61 131 -65 146 -4 8
31 -8 48 -61 66 -22 8 -40 20 -40 28 0 20 39 23 55 4 16 -19 40 -20 40 -1 0
28 -51 49 -98 39z"/>
<path d="M1259 511 l-29 -29 0 -137 0 -137 29 -29 29 -29 136 0 c128 0 136 1
163 24 l28 24 0 147 0 147 -28 24 c-27 23 -35 24 -163 24 l-136 0 -29 -29z
m224 -62 c9 -12 17 -37 17 -56 0 -27 3 -34 15 -29 8 3 15 1 15 -3 0 -5 -7 -11
-15 -15 -22 -8 -18 -25 14 -55 l29 -27 -32 -13 c-17 -7 -47 -19 -67 -28 -33
-13 -39 -13 -67 1 -17 9 -40 16 -52 16 -11 0 -20 5 -20 10 0 6 -7 10 -16 10
-11 0 -7 9 15 29 34 32 39 49 16 57 -8 4 -15 10 -15 15 0 4 7 6 15 3 12 -5 15
2 15 34 0 32 6 45 27 62 33 26 79 21 106 -11z"/>
<path d="M1810 527 c-44 -22 -51 -51 -48 -195 3 -133 3 -134 31 -158 27 -23
35 -24 163 -24 l136 0 29 29 29 29 0 137 0 137 -29 29 -29 29 -129 0 c-82 0
-137 -5 -153 -13z m204 -72 c85 -41 88 -170 6 -219 -64 -37 -152 -4 -179 68
-13 33 -13 44 0 79 25 74 102 106 173 72z"/>
<path d="M1952 420 c25 -35 26 -35 56 -14 22 15 22 17 5 30 -10 7 -33 14 -51
14 l-33 0 23 -30z"/>
<path d="M1874 408 l-27 -33 28 -3 c15 -2 38 -1 52 3 24 6 24 6 6 35 -9 17
-20 30 -24 30 -4 0 -20 -15 -35 -32z"/>
<path d="M2007 387 c-32 -27 -27 -37 20 -37 33 0 40 10 27 44 -8 21 -13 20
-47 -7z"/>
<path d="M1893 353 c-46 -4 -56 -22 -30 -57 13 -17 15 -17 41 8 16 14 37 28
47 31 24 8 25 26 2 23 -10 -1 -37 -3 -60 -5z"/>
<path d="M1945 311 c-17 -10 -36 -25 -43 -34 -11 -13 -10 -17 7 -26 11 -6 36
-11 56 -11 34 0 35 1 29 28 -16 63 -16 64 -49 43z"/>
<path d="M2006 303 c10 -42 20 -47 38 -22 24 35 20 49 -14 49 -28 0 -30 -2
-24 -27z"/>
</g>
</svg>
